<svg width="550" height="301" viewBox="0 0 550 301" fill="none" xmlns="http://www.w3.org/2000/svg">
<g clip-path="url(#clip0_9_94)">
<path d="M31.4615 62.7914V36.6103H37.2901V62.7914H31.4615ZM36.5805 62.7914V57.6594H47.5281V62.7914H36.5805Z" fill="#103329"/>
<path d="M59.7554 63.4774C58.0828 63.4774 56.613 63.1852 55.3586 62.6136C54.0915 62.0419 53.0399 61.2671 52.1909 60.3016C51.342 59.3362 50.6958 58.2437 50.265 57.0369C49.8215 55.8301 49.6061 54.5979 49.6061 53.3276V52.6416C49.6061 51.3205 49.8215 50.0629 50.265 48.8434C50.7084 47.6239 51.342 46.5315 52.1782 45.5787C53.0145 44.626 54.0535 43.8638 55.2953 43.3049C56.537 42.7459 57.9561 42.4665 59.5526 42.4665C61.6686 42.4665 63.4552 42.9365 64.8997 43.8765C66.3442 44.8165 67.4338 46.0614 68.1941 47.5858C68.9543 49.1102 69.3218 50.7616 69.3218 52.54V54.4709H52.0135V51.2062H65.888L64.0254 52.7179C64.0254 51.5492 63.8607 50.5456 63.5186 49.7072C63.1891 48.8688 62.695 48.2337 62.0361 47.7891C61.3772 47.3445 60.5536 47.1285 59.5526 47.1285C58.5516 47.1285 57.728 47.3572 57.0311 47.8145C56.3343 48.2718 55.8021 48.9323 55.4346 49.8089C55.0798 50.6854 54.9025 51.7524 54.9025 53.0227C54.9025 54.1914 55.0799 55.2204 55.422 56.0842C55.7641 56.9607 56.2962 57.634 57.0185 58.1294C57.728 58.6248 58.653 58.8662 59.768 58.8662C60.8831 58.8662 61.7193 58.6629 62.3909 58.2564C63.0624 57.8499 63.5186 57.3418 63.734 56.7193H68.9543C68.6883 58.0532 68.1434 59.2473 67.3071 60.2635C66.4709 61.2925 65.4192 62.0928 64.1394 62.6517C62.8597 63.2106 61.4026 63.4901 59.7554 63.4901V63.4774Z" fill="#103329"/>
<path d="M80.6494 69.9687V43.1778H85.1602V51.6381L84.552 51.6C84.6407 49.6437 85.0588 47.9796 85.7684 46.6331C86.4906 45.2865 87.4536 44.2703 88.67 43.5843C89.8864 42.8984 91.2548 42.5681 92.788 42.5681C94.1691 42.5681 95.4235 42.8221 96.5259 43.3176C97.6282 43.8257 98.5785 44.5244 99.3641 45.4136C100.15 46.3155 100.758 47.3699 101.176 48.5894C101.594 49.8089 101.797 51.1173 101.797 52.54V53.3657C101.797 54.8012 101.594 56.1223 101.201 57.3418C100.809 58.5613 100.213 59.6284 99.4275 60.5303C98.6419 61.4449 97.6916 62.1563 96.5892 62.6644C95.4869 63.1725 94.2198 63.4393 92.8133 63.4393C91.3309 63.4393 90.0004 63.1344 88.8094 62.5247C87.6183 61.9149 86.668 60.9876 85.9458 59.73C85.2362 58.4724 84.8308 56.8718 84.7674 54.9028L86.3386 57.0877V69.956H80.6494V69.9687ZM91.2042 58.6756C92.1798 58.6756 93.0288 58.4343 93.7637 57.9515C94.4859 57.4688 95.0687 56.7956 95.4869 55.919C95.905 55.0425 96.1077 54.0644 96.1077 52.9592C96.1077 51.8541 95.8923 50.8251 95.4869 49.9867C95.0687 49.1483 94.4986 48.5004 93.789 48.0304C93.0794 47.5604 92.2178 47.3317 91.2168 47.3317C90.3299 47.3317 89.5189 47.535 88.7714 47.9288C88.0238 48.3226 87.4029 48.9069 86.9341 49.6691C86.4526 50.4313 86.2119 51.3713 86.2119 52.4638V53.7849C86.2119 54.8139 86.4526 55.6904 86.9468 56.4272C87.4409 57.1512 88.0618 57.7102 88.8474 58.0913C89.6203 58.4724 90.4186 58.6629 91.2295 58.6629L91.2042 58.6756Z" fill="#103329"/>
<path d="M111.376 63.2996C109.97 63.2996 108.728 63.0455 107.676 62.5501C106.625 62.0547 105.788 61.3306 105.193 60.4033C104.597 59.4759 104.293 58.3454 104.293 57.0369C104.293 55.5761 104.661 54.3947 105.408 53.4674C106.143 52.5527 107.182 51.8668 108.525 51.4222C109.856 50.9776 111.401 50.7616 113.137 50.7616H117.319V53.9501H113.099C112.073 53.9501 111.287 54.2041 110.755 54.6996C110.223 55.2077 109.944 55.8555 109.944 56.6685C109.944 57.4815 110.21 58.1294 110.755 58.6248C111.287 59.1202 112.073 59.3616 113.099 59.3616C113.745 59.3616 114.316 59.2473 114.835 59.0186C115.355 58.79 115.773 58.4089 116.128 57.8499C116.47 57.3037 116.672 56.5288 116.723 55.5507L118.041 56.948C117.927 58.3072 117.597 59.4632 117.053 60.4033C116.52 61.3433 115.773 62.0674 114.835 62.5501C113.898 63.0455 112.745 63.2869 111.389 63.2869L111.376 63.2996ZM117.635 62.7914V57.0115H116.71V50.66C116.71 49.6564 116.47 48.9069 115.976 48.3988C115.481 47.8907 114.721 47.6493 113.669 47.6493C113.15 47.6493 112.453 47.6493 111.591 47.6874C110.73 47.7129 109.856 47.7383 108.943 47.7764C108.031 47.8145 107.22 47.8526 106.472 47.9034V43.1016C107.017 43.0508 107.664 43.0127 108.398 42.9746C109.133 42.9365 109.906 42.9111 110.692 42.8857C111.477 42.8603 112.2 42.8476 112.871 42.8476C114.873 42.8476 116.571 43.127 117.952 43.686C119.333 44.2449 120.372 45.1087 121.082 46.2647C121.791 47.4207 122.134 48.9069 122.134 50.7235V62.7787H117.623L117.635 62.7914Z" fill="#103329"/>
<path d="M134.411 63.4012C131.649 63.4012 129.47 62.8295 127.899 61.6736C126.328 60.5303 125.491 58.917 125.39 56.8337H130.471C130.547 57.4815 130.902 58.0532 131.561 58.5359C132.219 59.0313 133.195 59.2727 134.513 59.2727C135.539 59.2727 136.375 59.0948 137.034 58.7518C137.693 58.4089 138.023 57.9007 138.023 57.2275C138.023 56.6558 137.769 56.1858 137.275 55.8301C136.768 55.4744 135.881 55.2331 134.589 55.106L133.056 54.9663C130.724 54.6995 128.963 54.039 127.785 52.9719C126.606 51.9049 126.011 50.5456 126.011 48.8688C126.011 47.4842 126.353 46.3282 127.024 45.3882C127.696 44.4481 128.659 43.7622 129.888 43.2922C131.117 42.8222 132.524 42.5935 134.095 42.5935C136.604 42.5935 138.631 43.1397 140.177 44.2449C141.723 45.3501 142.533 46.9507 142.609 49.0467H137.567C137.49 48.3988 137.161 47.8526 136.578 47.4207C135.995 46.9761 135.146 46.7601 134.019 46.7601C133.132 46.7601 132.435 46.9252 131.903 47.2682C131.383 47.5985 131.117 48.0558 131.117 48.6275C131.117 49.1991 131.345 49.5929 131.801 49.8851C132.257 50.1772 132.98 50.3805 133.981 50.4948L135.552 50.6727C137.934 50.914 139.797 51.5746 141.127 52.6671C142.457 53.7595 143.129 55.195 143.129 56.9861C143.129 58.3072 142.774 59.4378 142.052 60.4159C141.33 61.3814 140.329 62.1309 139.024 62.639C137.719 63.1471 136.185 63.4139 134.386 63.4139L134.411 63.4012Z" fill="#103329"/>
<path d="M154.267 63.4012C151.504 63.4012 149.325 62.8295 147.754 61.6736C146.183 60.5303 145.346 58.917 145.245 56.8337H150.326C150.402 57.4815 150.757 58.0532 151.416 58.5359C152.075 59.0313 153.05 59.2727 154.368 59.2727C155.394 59.2727 156.231 59.0948 156.889 58.7518C157.548 58.4089 157.878 57.9007 157.878 57.2275C157.878 56.6558 157.624 56.1858 157.13 55.8301C156.623 55.4744 155.736 55.2331 154.444 55.106L152.911 54.9663C150.579 54.6995 148.818 54.039 147.64 52.9719C146.461 51.9049 145.866 50.5456 145.866 48.8688C145.866 47.4842 146.208 46.3282 146.88 45.3882C147.551 44.4481 148.514 43.7622 149.743 43.2922C150.972 42.8222 152.379 42.5935 153.95 42.5935C156.459 42.5935 158.486 43.1397 160.032 44.2449C161.578 45.3501 162.389 46.9507 162.465 49.0467H157.422C157.346 48.3988 157.016 47.8526 156.433 47.4207C155.85 46.9761 155.001 46.7601 153.874 46.7601C152.987 46.7601 152.29 46.9252 151.758 47.2682C151.238 47.5985 150.972 48.0558 150.972 48.6275C150.972 49.1991 151.2 49.5929 151.656 49.8851C152.113 50.1772 152.835 50.3805 153.836 50.4948L155.407 50.6727C157.789 50.914 159.652 51.5746 160.982 52.6671C162.313 53.7595 162.984 55.195 162.984 56.9861C162.984 58.3072 162.629 59.4378 161.907 60.4159C161.185 61.3814 160.184 62.1309 158.879 62.639C157.574 63.1471 156.041 63.4139 154.241 63.4139L154.267 63.4012Z" fill="#103329"/>
<path d="M292.137 39.3034L293.151 41.9457L295.786 42.9619L293.151 43.9781L292.137 46.6204L291.124 43.9909L288.501 42.9746L291.136 41.9584L292.15 39.3161L292.137 39.3034Z" fill="#103329"/>
<path d="M521.225 90.2174L522.238 92.8597L524.874 93.8759L522.238 94.8922L521.225 97.5344L520.211 94.9049L517.588 93.8886L520.224 92.8724L521.237 90.2301L521.225 90.2174Z" fill="#103329"/>
<path d="M427.93 39.3034L428.944 41.9457L431.579 42.9619L428.944 43.9781L427.93 46.6204L426.916 43.9909L424.293 42.9746L426.929 41.9584L427.943 39.3161L427.93 39.3034Z" fill="#103329"/>
<path d="M342.617 73.6907L343.631 76.333L346.267 77.3492L343.631 78.3654L342.617 81.0077L341.604 78.3781L338.981 77.3619L341.616 76.3457L342.63 73.7034L342.617 73.6907Z" fill="#103329"/>
<path d="M65.4065 228.846L66.4202 231.489L69.0557 232.505L66.4202 233.521L65.4065 236.163L64.3929 233.534L61.77 232.518L64.4055 231.501L65.4192 228.859L65.4065 228.846Z" fill="#103329"/>
<path d="M215.454 255.383L216.467 258.025L219.103 259.042L216.467 260.058L215.454 262.7L214.44 260.071L211.817 259.054L214.453 258.038L215.466 255.396L215.454 255.383Z" fill="#103329"/>
<path d="M96.3232 273.752L97.3368 276.394L99.9723 277.41L97.3368 278.427L96.3232 281.069L95.3095 278.439L92.6866 277.423L95.3222 276.407L96.3358 273.765L96.3232 273.752Z" fill="#103329"/>
<path d="M523.417 0H26.5833C11.9017 0 0 11.9321 0 26.6511V274.349C0 289.068 11.9017 301 26.5833 301H523.417C538.098 301 550 289.068 550 274.349V26.6511C550 11.9321 538.098 0 523.417 0Z" fill="white"/>
<path d="M310.307 129.47C307.241 128.251 303.389 127.641 298.751 127.641C297.256 127.641 295.66 127.653 293.949 127.679C292.239 127.704 290.591 127.781 289.02 127.882C287.449 127.996 286.03 128.098 284.75 128.212V138.007C286.296 137.892 288.045 137.803 290.009 137.714C291.973 137.625 293.911 137.562 295.85 137.511C297.776 137.46 299.436 137.422 300.817 137.422C303.414 137.422 305.34 138.07 306.62 139.378C307.887 140.674 308.521 142.605 308.521 145.146V145.565H299.41C295.432 145.565 291.96 146.086 288.97 147.14C285.992 148.194 283.699 149.77 282.089 151.878C280.493 153.987 279.682 156.693 279.682 160.021C279.682 163.07 280.353 165.674 281.709 167.821C283.065 169.98 284.953 171.644 287.386 172.8C289.819 173.969 292.657 174.541 295.913 174.541C299.17 174.541 301.729 173.969 303.908 172.838C306.088 171.708 307.798 170.056 309.04 167.897C309.598 166.931 310.041 165.839 310.409 164.67V173.372H319.608V145.463C319.608 141.259 318.822 137.841 317.251 135.212C315.68 132.582 313.361 130.664 310.294 129.445L310.307 129.47ZM303.68 165.471C302.325 166.055 300.855 166.347 299.246 166.347C296.597 166.347 294.57 165.712 293.164 164.442C291.757 163.171 291.048 161.507 291.048 159.462C291.048 157.417 291.757 155.753 293.164 154.482C294.57 153.212 296.597 152.577 299.246 152.577H308.521V156.731C308.407 159.17 307.912 161.088 307.025 162.498C306.138 163.908 305.023 164.912 303.668 165.483L303.68 165.471Z" fill="#103329"/>
<path d="M344.974 132.747C342.884 135.275 341.591 138.692 341.084 142.986V128.301H331.974V173.397H343.492V149.973C343.492 146.048 344.556 143.024 346.685 140.916C348.814 138.807 351.804 137.765 355.668 137.765H358.811V127.717H357.151C351.791 127.717 347.737 129.394 344.974 132.747Z" fill="#103329"/>
<path d="M393.301 129.47C390.234 128.251 386.382 127.641 381.745 127.641C380.25 127.641 378.653 127.653 376.943 127.679C375.232 127.704 373.585 127.781 372.014 127.882C370.443 127.996 369.023 128.098 367.744 128.212V138.007C369.29 137.892 371.038 137.803 373.002 137.714C374.966 137.625 376.905 137.562 378.843 137.511C380.782 137.46 382.429 137.422 383.81 137.422C386.408 137.422 388.334 138.07 389.613 139.378C390.881 140.674 391.514 142.605 391.514 145.146V145.565H382.404C378.425 145.565 374.953 146.086 371.963 147.14C368.985 148.194 366.692 149.77 365.083 151.878C363.486 153.987 362.675 156.693 362.675 160.021C362.675 163.07 363.347 165.674 364.703 167.821C366.058 169.98 367.946 171.644 370.379 172.8C372.812 173.969 375.65 174.541 378.907 174.541C382.163 174.541 384.723 173.969 386.902 172.838C389.081 171.708 390.792 170.056 392.034 167.897C392.591 166.931 393.035 165.839 393.402 164.67V173.372H402.601V145.463C402.601 141.259 401.815 137.841 400.244 135.212C398.673 132.582 396.354 130.664 393.288 129.445L393.301 129.47ZM386.674 165.471C385.318 166.055 383.848 166.347 382.239 166.347C379.591 166.347 377.564 165.712 376.157 164.442C374.751 163.171 374.041 161.507 374.041 159.462C374.041 157.417 374.751 155.753 376.157 154.482C377.564 153.212 379.591 152.577 382.239 152.577H391.514V156.731C391.4 159.17 390.906 161.088 390.019 162.498C389.132 163.908 388.017 164.912 386.661 165.483L386.674 165.471Z" fill="#103329"/>
<path d="M455.147 157.061V164.772C453.195 167.935 450.497 170.387 447.075 172.089C443.642 173.791 439.65 174.642 435.127 174.642C431.047 174.642 427.486 173.956 424.445 172.572C421.404 171.212 418.908 169.37 416.919 167.071C414.955 164.785 413.485 162.219 412.497 159.437C411.509 156.629 411.027 153.847 411.027 151.065V149.681C411.027 146.797 411.521 143.977 412.497 141.233C413.485 138.489 414.93 135.987 416.868 133.764C418.794 131.528 421.214 129.724 424.103 128.378C426.992 127.018 430.325 126.345 434.126 126.345C438.244 126.345 441.88 127.107 445.048 128.619C448.203 130.131 450.737 132.252 452.651 134.932C454.564 137.625 455.679 140.75 455.958 144.295H445.732C445.428 142.63 444.769 141.17 443.705 139.912C442.628 138.667 441.285 137.689 439.638 136.99C437.99 136.304 436.166 135.961 434.113 135.961C432.061 135.961 430.337 136.304 428.766 136.99C427.22 137.689 425.89 138.68 424.775 139.963C423.672 141.246 422.849 142.783 422.279 144.561C421.709 146.327 421.442 148.271 421.442 150.392C421.442 152.513 421.747 154.622 422.329 156.439C422.938 158.255 423.825 159.818 424.99 161.139C426.143 162.447 427.6 163.451 429.324 164.175C431.06 164.874 432.973 165.242 435.102 165.242C437.914 165.242 440.373 164.658 442.451 163.476C443.794 162.739 444.845 161.812 445.707 160.745V157.036H433.784V149.604H473.963V157.036H455.121L455.147 157.061Z" fill="#103329"/>
<path d="M506.742 149.744V151.129C506.742 151.446 506.742 151.777 506.729 152.094C506.729 152.437 506.691 152.755 506.679 153.06C506.514 155.295 506.058 157.493 505.298 159.64C504.309 162.422 502.865 164.924 500.926 167.186C498.975 169.447 496.58 171.238 493.691 172.61C490.802 173.969 487.457 174.655 483.669 174.655C483.504 174.655 483.326 174.655 483.162 174.642C479.246 174.604 475.787 173.829 472.746 172.368C469.591 170.819 467.044 168.71 465.144 165.979C464.003 164.404 463.18 162.676 462.635 160.783H473.95C473.988 160.859 474.026 160.91 474.077 160.974C475.141 162.219 476.497 163.209 478.144 163.908C479.791 164.607 481.616 164.95 483.669 164.95C485.721 164.95 487.444 164.607 489.003 163.908C490.194 163.375 491.258 162.663 492.183 161.787C492.31 161.66 492.449 161.52 492.576 161.406C492.576 161.393 492.576 161.368 492.589 161.368C492.665 161.317 492.715 161.24 492.779 161.177C492.829 161.101 492.906 161.025 492.982 160.936C493.704 160.059 494.325 159.094 494.819 158.052C494.895 157.9 494.946 157.734 495.009 157.557C495.098 157.366 495.199 157.137 495.25 156.934C495.3 156.82 495.338 156.731 495.376 156.617C495.389 156.502 495.452 156.388 495.465 156.274C495.554 156.045 495.617 155.842 495.668 155.588C495.744 155.359 495.782 155.13 495.832 154.889C495.985 154.241 496.099 153.568 496.187 152.844V152.717C496.225 152.475 496.238 152.221 496.263 151.955C496.276 151.446 496.301 150.926 496.301 150.379V149.566C496.289 149.071 496.251 148.575 496.187 148.131C496.061 146.886 495.807 145.705 495.452 144.612C494.907 142.834 494.071 141.309 492.956 140.014C491.854 138.731 490.536 137.74 488.965 137.041C487.419 136.355 485.632 136.012 483.631 136.012C481.629 136.012 479.753 136.355 478.106 137.041C476.459 137.74 475.103 138.705 474.039 139.963C472.974 141.208 472.315 142.669 472.011 144.345H461.773C461.925 142.503 462.306 140.788 462.888 139.175C463.433 137.676 464.168 136.292 465.106 134.983C466.994 132.316 469.553 130.194 472.708 128.67C475.863 127.158 479.513 126.383 483.631 126.383C487.406 126.383 490.751 127.069 493.653 128.428C496.542 129.788 498.949 131.579 500.888 133.814C501.8 134.856 502.586 135.961 503.283 137.092C503.511 137.486 503.739 137.867 503.929 138.261C504.119 138.604 504.271 138.921 504.423 139.264C504.74 139.925 505.006 140.585 505.26 141.271C505.994 143.38 506.463 145.501 506.641 147.661C506.691 148.36 506.717 149.084 506.717 149.782L506.742 149.744Z" fill="#103329"/>
<path d="M527.446 243.874L528.46 246.516L531.095 247.533L528.46 248.549L527.446 251.191L526.432 248.562L523.81 247.545L526.445 246.529L527.459 243.887L527.446 243.874Z" fill="#103329"/>
<path d="M528.498 157.709L529.511 160.351L532.147 161.368L529.511 162.384L528.498 165.026L527.484 162.396L524.861 161.38L527.497 160.364L528.51 157.722L528.498 157.709Z" fill="#103329"/>
<path d="M299.803 208.318L300.817 210.96L303.452 211.977L300.817 212.993L299.803 215.635L298.789 213.006L296.167 211.989L298.802 210.973L299.816 208.331L299.803 208.318Z" fill="#103329"/>
<path d="M232.128 109.945H52.0262C48.8711 109.945 46.3116 112.397 46.3116 115.433V205.587C46.3116 208.61 48.8711 211.075 52.0262 211.075H232.128C235.283 211.075 237.843 208.623 237.843 205.587V115.42C237.843 112.397 235.283 109.933 232.128 109.933V109.945Z" fill="white" stroke="#2F4E45" stroke-width="0.75" stroke-miterlimit="10"/>
<path d="M115.532 195.564H57.0311C56.841 195.564 56.689 195.17 56.689 194.688V121.238C56.689 120.756 56.841 120.362 57.0311 120.362H115.545C115.735 120.362 115.887 120.756 115.887 121.238V194.688C115.887 195.17 115.735 195.564 115.545 195.564H115.532Z" fill="#103329"/>
<path d="M201.757 172.356H127.341C127.037 172.356 126.784 172.102 126.784 171.797V166.576C126.784 166.271 127.037 166.017 127.341 166.017H201.757C202.061 166.017 202.314 166.271 202.314 166.576V171.797C202.314 172.102 202.061 172.356 201.757 172.356ZM127.899 171.251H201.199V167.147H127.899V171.251Z" fill="#103329"/>
<path d="M189.238 162.79H127.329C127.024 162.79 126.771 162.536 126.771 162.231V157.01C126.771 156.705 127.024 156.451 127.329 156.451H189.238C189.542 156.451 189.795 156.705 189.795 157.01V162.231C189.795 162.536 189.542 162.79 189.238 162.79ZM127.886 161.685H188.68V157.582H127.886V161.685Z" fill="#103329"/>
<path d="M221.219 180.079H127.341C127.037 180.079 126.784 179.825 126.784 179.52C126.784 179.215 127.037 178.961 127.341 178.961H221.219C221.523 178.961 221.776 179.215 221.776 179.52C221.776 179.825 221.523 180.079 221.219 180.079Z" fill="#103329"/>
<path d="M221.219 185.237H127.341C127.037 185.237 126.784 184.983 126.784 184.678C126.784 184.373 127.037 184.119 127.341 184.119H221.219C221.523 184.119 221.776 184.373 221.776 184.678C221.776 184.983 221.523 185.237 221.219 185.237Z" fill="#103329"/>
<path d="M221.219 190.407H127.341C127.037 190.407 126.784 190.153 126.784 189.848C126.784 189.543 127.037 189.289 127.341 189.289H221.219C221.523 189.289 221.776 189.543 221.776 189.848C221.776 190.153 221.523 190.407 221.219 190.407Z" fill="#103329"/>
<path d="M221.219 195.564H127.341C127.037 195.564 126.784 195.31 126.784 195.005C126.784 194.7 127.037 194.446 127.341 194.446H221.219C221.523 194.446 221.776 194.7 221.776 195.005C221.776 195.31 221.523 195.564 221.219 195.564Z" fill="#103329"/>
<path d="M194.42 88.782L197.968 96.5817L204.937 91.6021L204.126 100.139L212.641 99.3256L207.674 106.312L215.454 109.869L207.674 113.426L212.641 120.413L204.126 119.6L204.937 128.136L197.968 123.157L194.42 130.956L190.872 123.157L183.903 128.136L184.714 119.6L176.2 120.413L181.167 113.426L173.387 109.869L181.167 106.312L176.2 99.3256L184.714 100.139L183.903 91.6021L190.872 96.5817L194.42 88.782Z" fill="#75FD92"/>
<path d="M86.2879 167.554C96.6658 167.554 105.079 159.12 105.079 148.715C105.079 138.311 96.6658 129.877 86.2879 129.877C75.9101 129.877 67.4972 138.311 67.4972 148.715C67.4972 159.12 75.9101 167.554 86.2879 167.554Z" fill="white"/>
<path d="M86.2879 162.244C80.5607 162.244 75.4291 158.598 73.5411 153.161L73.9213 153.022C75.7585 158.293 80.7255 161.825 86.2879 161.825C91.8504 161.825 96.8173 158.281 98.6546 153.022L99.0347 153.161C97.1468 158.598 92.0151 162.244 86.2879 162.244Z" fill="#103329" stroke="#2F4E45" stroke-width="0.25" stroke-miterlimit="10"/>
<path d="M99.5796 153.542C98.4519 153.542 97.5523 153.06 97.5143 153.047L97.7043 152.691C97.7043 152.691 98.718 153.225 99.8584 153.136L99.8964 153.542C99.795 153.542 99.6937 153.542 99.5796 153.542Z" fill="#103329"/>
<path d="M72.8949 153.542C72.7935 153.542 72.6922 153.542 72.5781 153.542L72.6161 153.136C73.7565 153.225 74.7575 152.704 74.7702 152.691L74.9602 153.047C74.9602 153.047 74.0226 153.542 72.8949 153.542Z" fill="#103329"/>
<path d="M90.9761 149.808C92.6416 149.808 93.9917 146.958 93.9917 143.443C93.9917 139.929 92.6416 137.079 90.9761 137.079C89.3106 137.079 87.9604 139.929 87.9604 143.443C87.9604 146.958 89.3106 149.808 90.9761 149.808Z" fill="#103329"/>
<path d="M81.5871 149.808C83.2525 149.808 84.6027 146.958 84.6027 143.443C84.6027 139.929 83.2525 137.079 81.5871 137.079C79.9216 137.079 78.5714 139.929 78.5714 143.443C78.5714 146.958 79.9216 149.808 81.5871 149.808Z" fill="#103329"/>
<path d="M185.31 209.957C184.638 210.427 183.967 210.871 183.295 211.342L185.842 211.977C186.248 211.697 187.388 210.833 187.793 210.554C208.193 196.25 226.046 179.901 240.2 163.578L238.198 162.828C224.323 178.949 206.343 195.221 185.323 209.97L185.31 209.957Z" fill="white"/>
<path d="M264.033 82.6464C259.434 76.0408 251.946 71.7598 241.809 69.9306C232.052 68.1648 220.256 68.7111 206.724 71.5566C180.672 77.0443 150.947 90.5096 122.412 109.653H123.616C162.414 83.8024 201.871 69.5876 229.81 69.5876C245.23 69.5876 257.153 73.9194 263.501 83.0275C282.001 109.539 246.434 166.588 184.233 210.224C154.064 231.387 122.197 246.25 94.5112 252.093C81.0675 254.926 69.3471 255.472 59.6793 253.719C49.7074 251.915 42.371 247.723 37.8729 241.27C33.3748 234.817 31.9556 226.471 33.6789 216.461C35.2627 207.277 39.4314 197.063 46.0202 186.1V184.817C39.0513 196.212 34.6672 206.819 33.0327 216.359C31.2841 226.547 32.7286 235.058 37.3281 241.651C41.9275 248.257 49.416 252.538 59.5526 254.367C63.2778 255.04 67.3071 255.383 71.6152 255.383C78.5841 255.383 86.2752 254.494 94.6379 252.741C122.412 246.885 154.355 231.971 184.6 210.77C214.846 189.556 239.769 164.581 254.771 140.433C262.082 128.67 266.644 117.745 268.329 107.951C270.077 97.7631 268.633 89.252 264.033 82.6591V82.6464Z" fill="#2F4E45" stroke="#2F4E45" stroke-width="0.2" stroke-miterlimit="10"/>
<path d="M252.376 85.1108H235.98L230.874 89.2393L225.768 85.1108H209.372C208.358 85.1108 207.534 84.2851 207.534 83.2688V48.1702C207.534 47.1539 208.358 46.3282 209.372 46.3282H252.364C253.377 46.3282 254.201 47.1539 254.201 48.1702V83.2688C254.201 84.2851 253.377 85.1108 252.364 85.1108H252.376Z" fill="white" stroke="#2F4E45" stroke-width="0.75" stroke-miterlimit="10"/>
<path d="M242.671 58.0913C237.59 51.5111 230.887 59.5775 230.887 59.5775C230.887 59.5775 224.184 51.5111 219.103 58.0913C214.022 64.6715 230.887 77.3238 230.887 77.3238C230.887 77.3238 247.752 64.6588 242.671 58.0913Z" fill="#103329"/>
<path d="M393.478 300.428V287.471H395.923C405.274 287.382 414.195 287.052 422.431 286.442L424.205 286.315L424.889 287.967C426.587 292.108 428.196 296.262 429.716 300.428H431.427C430.071 296.694 428.652 292.972 427.157 289.262L425.915 286.188L429.21 285.883C441.12 284.791 452.422 283.114 462.787 280.904L464.282 280.586L465.233 281.78C469.946 287.713 474.191 293.95 478.017 300.428H480.083C476.624 294.433 472.81 288.653 468.628 283.139L466.36 280.154L469.997 279.265C481.033 276.547 490.992 273.206 499.596 269.318L501.053 268.658L502.244 269.725C511.988 278.49 520.566 288.335 527.915 299.056C528.472 298.879 529.017 298.663 529.562 298.459C499.659 254.697 449.445 225.937 392.654 225.937C335.864 225.937 284.155 255.574 254.416 300.441H256.456C264.021 289.173 272.916 278.871 283.078 269.725L284.269 268.658L285.726 269.318C294.342 273.206 304.301 276.547 315.325 279.265L318.961 280.154L316.693 283.139C312.512 288.653 308.698 294.433 305.239 300.428H307.304C311.131 293.95 315.375 287.725 320.089 281.793L321.039 280.599L322.522 280.916C332.861 283.114 344.163 284.791 356.112 285.883L359.406 286.188L358.165 289.262C356.669 292.972 355.25 296.694 353.894 300.428H355.605C357.113 296.262 358.722 292.108 360.433 287.979L361.117 286.328L362.891 286.455C371.101 287.052 380.022 287.395 389.398 287.458H391.843V300.428H393.491H393.478ZM410.52 228.567C442.159 232.022 471.935 244.573 496.631 264.885L499.786 267.477L496.035 269.064C487.343 272.736 477.447 275.873 466.639 278.376L465.156 278.719L464.194 277.55C459.151 271.453 453.778 265.774 448.228 260.668C433.48 247.113 418.82 238.247 409.126 233.204L397.469 227.144L410.52 228.567ZM402.69 231.933C415.132 237.891 439.169 251.534 460.392 275.962L463.18 279.176L459.011 280.002C449.141 281.958 438.37 283.444 426.979 284.422L425.206 284.575L424.509 282.936C415.449 261.773 405.933 245.462 399.56 235.49L394.884 228.199L402.69 231.933ZM393.478 229.062L398.001 236.1C404.147 245.665 413.32 261.303 422.139 281.501L423.546 284.715L420.049 284.943C412.459 285.451 404.349 285.731 395.949 285.794H393.465V229.05L393.478 229.062ZM320.152 278.719L318.67 278.376C307.849 275.873 297.966 272.736 289.274 269.052L285.523 267.464L288.678 264.872C313.373 244.56 343.15 232.009 374.789 228.554L387.839 227.131L376.182 233.191C366.477 238.234 351.829 247.101 337.08 260.655C331.531 265.762 326.158 271.44 321.115 277.537L320.14 278.706L320.152 278.719ZM360.8 282.936L360.103 284.575L358.329 284.422C346.951 283.444 336.181 281.958 326.298 280.002L322.129 279.176L324.916 275.962C346.14 251.534 370.176 237.891 382.619 231.933L390.424 228.199L385.749 235.49C379.363 245.462 369.847 261.786 360.8 282.936ZM389.36 285.807C380.972 285.744 372.875 285.464 365.26 284.956L361.763 284.727L363.169 281.513C371.988 261.303 381.162 245.665 387.307 236.113L391.831 229.075V285.845H389.36V285.807Z" fill="#103329"/>
</g>
<defs>
<clipPath id="clip0_9_94">
<rect width="550" height="301" fill="white"/>
</clipPath>
</defs>
</svg>
